# Alias OBJ Model File
# Exported from SketchUp, (c) 2000-2012 Trimble Navigation Limited
# File units = meters

mtllib exit_sign.mtl

g Mesh1 Exit_Text1 Exit_Sign1 Model

usemtl FrontColor
v 0.0235451 0.111125 -0.003175
vt 1.14387 -3.0007
vn -2.37126e-014 -2.03541e-016 -1
v 0.0235451 0.263525 -0.003175
vt 1.14387 2.9993
v 0.0424142 0.263525 -0.003175
vt 1.88675 2.9993
v 0.0424142 0.111125 -0.003175
vt 1.88675 -3.0007
f 1/1/1 2/2/1 3/3/1 4/4/1 

g Mesh2 Exit_Text1 Exit_Sign1 Model

v -0.0876212 0.197133 -0.003175
vt -3.23276 0.385435
vn -2.47095e-014 -8.35135e-016 -1
v -0.0550291 0.197133 -0.003175
vt -1.9496 0.385435
v -0.0550291 0.179026 -0.003175
vt -1.9496 -0.327436
v -0.0876212 0.179026 -0.003175
vt -3.23276 -0.327436
v -0.0876212 0.130741 -0.003175
vt -3.23276 -2.22843
v -0.0550291 0.130741 -0.003175
vt -1.9496 -2.22843
v -0.0550291 0.111125 -0.003175
vt -1.9496 -3.0007
v -0.104775 0.111125 -0.003175
vt -3.9081 -3.0007
v -0.104775 0.263525 -0.003175
vt -3.9081 2.9993
v -0.0550291 0.263525 -0.003175
vt -1.9496 2.9993
v -0.0550291 0.245418 -0.003175
vt -1.9496 2.28643
v -0.0876212 0.245418 -0.003175
vt -3.23276 2.28643
f 5/5/2 6/6/2 7/7/2 8/8/2 9/9/2 10/10/2 11/11/2 12/12/2 13/13/2 14/14/2 15/15/2 16/16/2 

g Mesh3 Exit_Text1 Exit_Sign1 Model

v 0.0533137 0.111125 -0.003175
vt 2.31586 -3.0007
vn -2.47546e-014 -7.31652e-016 -1
v 0.0533137 0.130741 -0.003175
vt 2.31586 -2.22843
v 0.0687521 0.130741 -0.003175
vt 2.92367 -2.22843
v 0.0687521 0.263525 -0.003175
vt 2.92367 2.9993
v 0.0876212 0.263525 -0.003175
vt 3.66655 2.9993
v 0.0876212 0.130741 -0.003175
vt 3.66655 -2.22843
v 0.104775 0.130741 -0.003175
vt 4.3419 -2.22843
v 0.104775 0.111125 -0.003175
vt 4.3419 -3.0007
f 17/17/3 18/18/3 19/19/3 20/20/3 21/21/3 22/22/3 23/23/3 24/24/3 

g Mesh4 Exit_Text1 Exit_Sign1 Model

v -0.00550923 0.187343 -0.003175
vt 1.06017e-016 3.80308e-017
vn -2.54118e-014 -3.04246e-016 -1
v 0.0133599 0.111125 -0.003175
vt 0.74288 -3.0007
v -0.00550923 0.111125 -0.003175
vt 2.4975e-014 -3.0007
v -0.0157355 0.148078 -0.003175
vt -0.402609 -1.54585
v -0.0243529 0.111125 -0.003175
vt -0.741876 -3.0007
v -0.0437275 0.111125 -0.003175
vt -1.50466 -3.0007
v -0.0243529 0.187343 -0.003175
vt -0.741876 -2.12783e-014
v -0.0454669 0.263525 -0.003175
vt -1.57313 2.9993
v -0.0248823 0.263525 -0.003175
vt -0.762721 2.9993
v -0.0157355 0.227107 -0.003175
vt -0.402609 1.56552
v -0.00550923 0.263525 -0.003175
vt 4.9844e-014 2.9993
v 0.0133599 0.263525 -0.003175
vt 0.74288 2.9993
f 25/25/4 26/26/4 27/27/4 28/28/4 29/29/4 30/30/4 31/31/4 32/32/4 33/33/4 34/34/4 35/35/4 36/36/4 

g Mesh5 Exit_Text1 Exit_Sign1 Model

l 8 9

l 7 8

l 6 7

l 5 6

l 16 5

l 15 16

l 14 15

l 13 14

l 12 13

l 11 12

l 10 11

l 9 10

g Mesh6 Exit_Text1 Exit_Sign1 Model

l 4 1

l 3 4

l 2 3

l 1 2

g Mesh7 Exit_Text1 Exit_Sign1 Model

l 35 34

l 36 35

l 25 36

l 26 25

l 27 26

l 28 27

l 29 28

l 30 29

l 31 30

l 32 31

l 33 32

l 34 33

g Mesh8 Exit_Text1 Exit_Sign1 Model

l 24 17

l 23 24

l 22 23

l 21 22

l 20 21

l 19 20

l 18 19

l 17 18

g Mesh9 Exit_Text2 Exit_Sign1 Model

v -0.0424142 0.111125 0.003175
vn -2.6303e-014 -2.03541e-016 -1
v -0.0424142 0.263525 0.003175
v -0.0235451 0.263525 0.003175
v -0.0235451 0.111125 0.003175
f 37/4/5 38/3/5 39/2/5 40/1/5 

g Mesh10 Exit_Text2 Exit_Sign1 Model

v 0.0876212 0.245418 0.003175
vn -2.5306e-014 -8.35135e-016 -1
v 0.0550291 0.245418 0.003175
v 0.0550291 0.263525 0.003175
v 0.104775 0.263525 0.003175
v 0.104775 0.111125 0.003175
v 0.0550291 0.111125 0.003175
v 0.0550291 0.130741 0.003175
v 0.0876212 0.130741 0.003175
v 0.0876212 0.179026 0.003175
v 0.0550291 0.179026 0.003175
v 0.0550291 0.197133 0.003175
v 0.0876212 0.197133 0.003175
f 41/16/6 42/15/6 43/14/6 44/13/6 45/12/6 46/11/6 47/10/6 48/9/6 49/8/6 50/7/6 51/6/6 52/5/6 

g Mesh11 Exit_Text2 Exit_Sign1 Model

v -0.104775 0.111125 0.003175
vn -2.5261e-014 -7.31652e-016 -1
v -0.104775 0.130741 0.003175
v -0.0876212 0.130741 0.003175
v -0.0876212 0.263525 0.003175
v -0.0687521 0.263525 0.003175
v -0.0687521 0.130741 0.003175
v -0.0533137 0.130741 0.003175
v -0.0533137 0.111125 0.003175
f 53/24/7 54/23/7 55/22/7 56/21/7 57/20/7 58/19/7 59/18/7 60/17/7 

g Mesh12 Exit_Text2 Exit_Sign1 Model

v -0.0133599 0.263525 0.003175
vn -2.46037e-014 -3.04246e-016 -1
v 0.00550923 0.263525 0.003175
v 0.0157355 0.227107 0.003175
v 0.0248823 0.263525 0.003175
v 0.0454669 0.263525 0.003175
v 0.0243529 0.187343 0.003175
v 0.0437275 0.111125 0.003175
v 0.0243529 0.111125 0.003175
v 0.0157355 0.148078 0.003175
v 0.00550923 0.111125 0.003175
v -0.0133599 0.111125 0.003175
v 0.00550923 0.187343 0.003175
f 61/36/8 62/35/8 63/34/8 64/33/8 65/32/8 66/31/8 67/30/8 68/29/8 69/28/8 70/27/8 71/26/8 72/25/8 

g Mesh13 Exit_Text2 Exit_Sign1 Model

l 49 48

l 50 49

l 51 50

l 52 51

l 41 52

l 42 41

l 43 42

l 44 43

l 45 44

l 46 45

l 47 46

l 48 47

g Mesh14 Exit_Text2 Exit_Sign1 Model

l 37 40

l 38 37

l 39 38

l 40 39

g Mesh15 Exit_Text2 Exit_Sign1 Model

l 62 63

l 61 62

l 72 61

l 71 72

l 70 71

l 69 70

l 68 69

l 67 68

l 66 67

l 65 66

l 64 65

l 63 64

g Mesh16 Exit_Text2 Exit_Sign1 Model

l 53 60

l 54 53

l 55 54

l 56 55

l 57 56

l 58 57

l 59 58

l 60 59

g Mesh17 Exit_Sign1 Model

v 0.1778 0.092075 0.00635
vt 7 0.25
vn 0 -1 0
v -0.1778 0.092075 0.00635
vt -7 0.25
v -0.1778 0.092075 -2.25597e-017
vt -7 -8.88178e-016
v 0.1778 0.092075 -2.25597e-017
vt 7 -8.88178e-016
f 73/37/9 74/38/9 75/39/9 76/40/9 

vn 0 1 0
v -0.20955 0.092075 0.015875
vt 8.25 0.625
f 74/37/10 77/41/10 73/38/10

f 75/40/10 77/41/10 74/37/10

v -0.1778 0.092075 -0.00635
vt 7 -0.25
f 78/42/10 77/41/10 75/40/10

v -0.20955 0.092075 -0.015875
vt 8.25 -0.625
f 78/42/10 79/43/10 77/41/10

v 0.20955 0.092075 -0.015875
vt -8.25 -0.625
f 79/43/10 78/42/10 80/44/10

v 0.1778 0.092075 -0.00635
vt -7 -0.25
f 81/45/10 80/44/10 78/42/10

v 0.20955 0.092075 0.015875
vt -8.25 0.625
f 80/44/10 81/45/10 82/46/10

f 82/46/10 81/45/10 76/39/10

vt 3.625 -0.25
vn 1 0 0
v 0.1778 0.282575 -0.00635
vt 11.125 -0.25
v 0.1778 0.282575 6.76792e-017
vt 11.125 2.66454e-015
vt 3.625 -8.88178e-016
f 81/47/11 83/48/11 84/49/11 76/50/11 

v -0.1778 0.282575 -0.00635
v -0.1778 0.282575 6.76792e-017
vt 7 2.66454e-015
vt -7 2.66454e-015
f 83/45/10 85/42/10 86/51/10 84/52/10 

vt -11.125 -0.25
vn -1 0 0
vt -3.625 -0.25
vt -3.625 -8.88178e-016
vt -11.125 2.66454e-015
f 85/53/12 78/54/12 75/55/12 86/56/12 

vn 0 -1 -2.84217e-014
vt 7 -1.03917e-013
vt -7 -1.03917e-013
f 78/45/13 81/42/13 76/57/13 75/58/13 

vt -7 3.625
vn 0 -4.73695e-016 1
vt 7 3.625
vt 7 11.125
vt -7 11.125
f 75/59/14 76/60/14 84/61/14 86/62/14 

v 0.1778 0.282575 0.00635
vt 11.125 0.25
vt 3.625 0.25
f 87/63/11 73/64/11 76/50/11 84/49/11 

f 82/46/10 76/39/10 73/38/10

f 82/46/10 73/38/10 77/41/10

vt 8.25 -3.22494
vn 0 0.32508 0.945687
v -0.20955 0.041275 0.0333375
vt 8.25 -1.11007
v 0.20955 0.041275 0.0333375
vt -8.25 -1.11007
vt -8.25 -3.22494
f 77/65/15 88/66/15 89/67/15 82/68/15 

vt -3.625 0.625
vt -3.625 -0.625
v -0.20955 0.041275 -0.0333375
vt -1.625 -1.3125
v -0.20955 0 -0.0333375
vt 0 -1.3125
v -0.20955 0 0.0333375
vt 0 1.3125
vt -1.625 1.3125
f 77/69/12 79/70/12 90/71/12 91/72/12 92/73/12 88/74/12 

vt 8.25 1.11007
vn 0 0.32508 -0.945687
vt 8.25 3.22494
vt -8.25 3.22494
v 0.20955 0.041275 -0.0333375
vt -8.25 1.11007
f 90/75/16 79/76/16 80/77/16 93/78/16 

vt 3.625 -0.625
vt 3.625 0.625
vt 1.625 1.3125
v 0.20955 0 0.0333375
v 0.20955 0 -0.0333375
vt 1.625 -1.3125
f 80/79/11 82/80/11 89/81/11 94/73/11 95/72/11 93/82/11 

vt -8.25 1.625
vn 0 -2.18629e-015 1
vt -8.25 2.8695e-015
vt 8.25 2.8695e-015
vt 8.25 1.625
f 88/83/17 92/84/17 94/85/17 89/86/17 

vt -8.25 1.3125
v -2.25597e-017 0 0.0127
vt -8.88178e-016 0.5
vt 8.25 1.3125
f 92/87/9 96/88/9 94/89/9

v -0.003287 0 0.0122673
vt -0.12941 0.482963
f 92/87/9 97/90/9 96/88/9

v -0.00635 0 0.0109985
vt -0.25 0.433013
f 92/87/9 98/91/9 97/90/9

v -0.00898026 0 0.00898026
vt -0.353553 0.353553
f 92/87/9 99/92/9 98/91/9

v -0.0109985 0 0.00635
vt -0.433013 0.25
f 92/87/9 100/93/9 99/92/9

v -0.0122673 0 0.003287
vt -0.482963 0.12941
f 92/87/9 101/94/9 100/93/9

v -0.0127 0 9.02389e-017
vt -0.5 3.55271e-015
f 92/87/9 102/95/9 101/94/9

v -0.0122673 0 -0.003287
vt -0.482963 -0.12941
f 92/87/9 103/96/9 102/95/9

v -0.0109985 0 -0.00635
vt -0.433013 -0.25
f 92/87/9 104/97/9 103/96/9

v -0.00898026 0 -0.00898026
vt -0.353553 -0.353553
f 92/87/9 105/98/9 104/97/9

v -0.00635 0 -0.0109985
vt -0.25 -0.433013
f 92/87/9 106/99/9 105/98/9

v -0.003287 0 -0.0122673
vt -0.12941 -0.482963
f 92/87/9 107/100/9 106/99/9

vt -8.25 -1.3125
f 91/101/9 107/100/9 92/87/9

v -2.25597e-017 0 -0.0127
vt -8.88178e-016 -0.5
f 107/100/9 91/101/9 108/102/9

vt 8.25 -1.3125
f 95/103/9 108/102/9 91/101/9

v 0.003287 0 -0.0122673
vt 0.12941 -0.482963
f 108/102/9 95/103/9 109/104/9

f 109/104/9 95/103/9 94/89/9

v 0.00635 0 -0.0109985
vt 0.25 -0.433013
f 109/104/9 94/89/9 110/105/9

v 0.00898026 0 -0.00898026
vt 0.353553 -0.353553
f 110/105/9 94/89/9 111/106/9

v 0.0109985 0 -0.00635
vt 0.433013 -0.25
f 111/106/9 94/89/9 112/107/9

v 0.0122673 0 -0.003287
vt 0.482963 -0.12941
f 112/107/9 94/89/9 113/108/9

v 0.0127 0 9.02389e-017
vt 0.5 3.55271e-015
f 113/108/9 94/89/9 114/109/9

v 0.0122673 0 0.003287
vt 0.482963 0.12941
f 114/109/9 94/89/9 115/110/9

v 0.0109985 0 0.00635
vt 0.433013 0.25
f 115/110/9 94/89/9 116/111/9

v 0.00898026 0 0.00898026
vt 0.353553 0.353553
f 116/111/9 94/89/9 117/112/9

v 0.00635 0 0.0109985
vt 0.25 0.433013
f 117/112/9 94/89/9 118/113/9

v 0.003287 0 0.0122673
vt 0.12941 0.482963
f 118/113/9 94/89/9 119/114/9

f 119/114/9 94/89/9 96/88/9

vt 6.98499e-016 -0.0652631
vn 0.258819 -7.69138e-016 0.965926
vt -4.74471e-030 0.0652631
vn -2.79951e-017 -7.10569e-016 1
v -2.25597e-017 -0.254 0.0127
vt -10 0.0652631
v 0.003287 -0.254 0.0122673
vt -10 -0.0652631
f 119/115/18 96/116/19 120/117/19 121/118/18 

vt -4.74422e-030 0.0652631
vt -6.98427e-016 -0.0652631
vn -0.258819 -7.69101e-016 0.965926
v -0.003287 -0.254 0.0122673
vt 10 -0.0652631
vt 10 0.0652631
f 96/119/19 97/120/20 122/121/20 120/122/19 

vt -2.77493e-016 0.0652631
vt -5.36075e-016 -0.0652631
vn -0.5 -6.98006e-016 0.866025
v -0.00635 -0.254 0.0109985
f 97/123/20 98/124/21 123/121/21 122/122/20 

vt -2.31404e-016 0.0652631
vt -3.27255e-016 -0.0652631
vn -0.707107 -3.3859e-016 0.707107
v -0.00898026 -0.254 0.00898026
f 98/125/21 99/126/22 124/121/22 123/122/21 

vt -4.8088e-017 0.0652631
vt -5.88955e-017 -0.0652631
vn -0.866025 1.41459e-017 0.5
v -0.0109985 -0.254 0.00635
f 99/127/22 100/128/23 125/121/23 124/122/22 

vt 6.37214e-017 0.0652631
vt 7.1072e-017 -0.0652631
vn -0.965926 6.85648e-017 0.258819
v -0.0122673 -0.254 0.003287
f 100/129/23 101/130/24 126/121/24 125/122/23 

vt 0 0.0652631
vt 0 -0.0652631
vn -1 3.50479e-017 2.64553e-015
v -0.0127 -0.254 0
f 101/131/24 102/132/25 127/121/25 126/122/24 

vt 3.50479e-017 0.0652631
vt 3.38537e-017 -0.0652631
vn -0.965926 6.93208e-017 -0.258819
v -0.0122673 -0.254 -0.003287
f 102/133/25 103/134/26 128/121/26 127/122/25 

vt 3.55261e-017 0.0652631
vt 3.18518e-017 -0.0652631
vn -0.866025 3.42729e-017 -0.5
v -0.0109985 -0.254 -0.00635
f 103/135/26 104/136/27 129/121/27 128/122/26 

vn -0.707107 1.42027e-016 -0.707107
v -0.00898026 -0.254 -0.00898026
f 104/131/27 105/132/28 130/121/28 129/122/27 

vt 1.63561e-016 0.0652631
vt 1.15655e-016 -0.0652631
vn -0.5 3.07557e-016 -0.866025
v -0.00635 -0.254 -0.0109985
f 105/137/28 106/138/29 131/121/29 130/122/28 

vt 2.14425e-016 0.0652631
vt 1.10995e-016 -0.0652631
vn -0.258819 2.54353e-016 -0.965926
v -0.003287 -0.254 -0.0122673
f 106/139/29 107/140/30 132/121/30 131/122/29 

vt 1.74619e-016 0.0652631
vt 1.19847e-030 -0.0652631
vn -2.79951e-017 1.77609e-016 -1
v -2.25597e-017 -0.254 -0.0127
f 107/141/30 108/142/31 133/121/31 132/122/30 

vt 1.19798e-030 -0.0652631
vt -1.74548e-016 0.0652631
vn 0.258819 2.54317e-016 -0.965926
v 0.003287 -0.254 -0.0122673
f 108/143/31 109/144/32 134/117/32 133/118/31 

vt -1.10995e-016 -0.0652631
vt -2.14425e-016 0.0652631
vn 0.5 3.07557e-016 -0.866025
v 0.00635 -0.254 -0.0109985
f 109/145/32 110/146/33 135/117/33 134/118/32 

vt -1.15655e-016 -0.0652631
vt -1.63561e-016 0.0652631
vn 0.707107 1.42027e-016 -0.707107
v 0.00898026 -0.254 -0.00898026
f 110/147/33 111/148/34 136/117/34 135/118/33 

vn 0.866025 3.42729e-017 -0.5
v 0.0109985 -0.254 -0.00635
f 111/132/34 112/131/35 137/117/35 136/118/34 

vt -3.18518e-017 -0.0652631
vt -3.55261e-017 0.0652631
vn 0.965926 6.93208e-017 -0.258819
v 0.0122673 -0.254 -0.003287
f 112/149/35 113/150/36 138/117/36 137/118/35 

vt -3.38537e-017 -0.0652631
vt -3.50479e-017 0.0652631
vn 1 3.50479e-017 2.65953e-015
v 0.0127 -0.254 0
f 113/151/36 114/152/37 139/117/37 138/118/36 

vn 0.965926 6.85648e-017 0.258819
v 0.0122673 -0.254 0.003287
f 114/132/37 115/131/38 140/117/38 139/118/37 

vt -7.1072e-017 -0.0652631
vt -6.37214e-017 0.0652631
vn 0.866025 1.41459e-017 0.5
v 0.0109985 -0.254 0.00635
f 115/153/38 116/154/39 141/117/39 140/118/38 

vt 5.88955e-017 -0.0652631
vt 4.8088e-017 0.0652631
vn 0.707107 -3.3859e-016 0.707107
v 0.00898026 -0.254 0.00898026
f 116/155/39 117/156/40 142/117/40 141/118/39 

vt 3.27255e-016 -0.0652631
vt 2.31404e-016 0.0652631
vn 0.5 -6.98006e-016 0.866025
v 0.00635 -0.254 0.0109985
f 117/157/40 118/158/41 143/117/41 142/118/40 

vt 5.36075e-016 -0.0652631
vt 2.77493e-016 0.0652631
f 118/159/41 119/160/18 121/117/18 143/118/41 

vn 2.15275e-029 -1 -1.9788e-015
vt -0.5 1.9788e-014
vt 0.5 1.9788e-014
f 121/114/42 120/88/42 122/90/42 123/91/42 124/92/42 125/93/42 126/94/42 127/161/42 128/96/42 129/97/42 130/98/42 131/99/42 132/100/42 133/102/42 134/104/42 135/105/42 136/106/42 137/107/42 138/108/42 139/162/42 140/110/42 141/111/42 142/112/42 143/113/42 

vt 8.25 0
vn 0 0 -1
vt -8.25 0
f 91/163/43 90/86/43 93/83/43 95/164/43 

v -0.1778 0.282575 0.00635
f 144/37/10 87/38/10 84/52/10 86/51/10 

vt -3.625 0.25
vt -11.125 0.25
f 74/165/12 144/166/12 86/56/12 75/55/12 

g Mesh18 Exit_Sign1 Model

l 142 141

l 143 142

l 121 143

l 120 121

l 122 120

l 123 122

l 124 123

l 125 124

l 126 125

l 127 126

l 128 127

l 129 128

l 130 129

l 131 130

l 132 131

l 133 132

l 134 133

l 135 134

l 136 135

l 137 136

l 138 137

l 139 138

l 140 139

l 141 140

g Mesh19 Exit_Sign1 Model

l 73 74

l 76 73

l 75 76

l 74 75

l 74 144

l 87 144

l 84 87

l 76 84

l 81 76

l 81 83

l 78 81

l 78 75

l 78 85

l 85 86

l 85 83

l 83 84

l 86 84

l 144 86

l 75 86

l 73 87

g Mesh20 Exit_Sign1 Model

l 118 117

l 119 118

l 96 119

l 97 96

l 98 97

l 99 98

l 100 99

l 101 100

l 102 101

l 103 102

l 104 103

l 105 104

l 106 105

l 107 106

l 108 107

l 109 108

l 110 109

l 111 110

l 112 111

l 113 112

l 114 113

l 115 114

l 116 115

l 117 116

g Mesh21 Exit_Sign1 Model

l 92 88

l 91 92

l 90 91

l 79 90

l 77 79

l 88 77

l 88 89

l 94 89

l 92 94

l 95 94

l 93 95

l 80 93

l 82 80

l 77 82

l 89 82

l 79 80

l 90 93

l 91 95

