# Alias OBJ Model File
# Exported from SketchUp, (c) 2000-2012 Trimble Navigation Limited
# File units = meters

mtllib box.mtl

g Mesh1 Model

usemtl FrontColor
v -0.04445 0.028575 -0.03175
vt 1.75 1.125
vn 0 0 -1
v 0.04445 0.028575 -0.03175
vt -1.75 1.125
v 0.04445 -0.028575 -0.03175
vt -1.75 -1.125
v -0.04445 -0.028575 -0.03175
vt 1.75 -1.125
f 1/1/1 2/2/1 3/3/1 4/4/1 

usemtl BackColor
vn -0 -0 1
f 4/4/2 3/3/2 2/2/2 1/1/2 

usemtl FrontColor
vt -1.75 -1.25
vn 0 -1 0
vt 1.75 -1.25
v 0.04445 -0.028575 0.03175
vt 1.75 1.25
v -0.04445 -0.028575 0.03175
vt -1.75 1.25
f 4/5/3 3/6/3 5/7/3 6/8/3 

usemtl BackColor
vn -0 1 -0
f 6/8/4 5/7/4 3/6/4 4/5/4 

usemtl FrontColor
v 0.04445 0.028575 0.03175
vn 0 0 1
v -0.04445 0.028575 0.03175
f 7/1/5 8/2/5 6/3/5 5/4/5 

usemtl BackColor
vn -0 -0 -1
f 5/4/6 6/3/6 8/2/6 7/1/6 

usemtl FrontColor
vt -1.125 -1.25
vn -1 0 0
vt 1.125 -1.25
vt 1.125 1.25
vt -1.125 1.25
f 1/9/7 4/10/7 6/11/7 8/12/7 

usemtl BackColor
vn 1 -0 -0
f 8/12/8 6/11/8 4/10/8 1/9/8 

usemtl FrontColor
vn 0 1 0
f 2/5/9 1/6/9 8/7/9 7/8/9 

usemtl BackColor
vn -0 -1 -0
f 7/8/10 8/7/10 1/6/10 2/5/10 

usemtl FrontColor
vn 1 0 0
f 3/9/11 2/10/11 7/11/11 5/12/11 

usemtl BackColor
vn -1 -0 -0
f 5/12/12 7/11/12 2/10/12 3/9/12 

g Mesh2 Model

l 1 4

l 2 1

l 3 2

l 4 3

l 4 6

l 6 5

l 8 6

l 7 8

l 5 7

l 3 5

l 2 7

l 1 8

